<svg width="128" height="128" viewBox="0 0 128 128" fill="none" xmlns="http://www.w3.org/2000/svg">
  <defs>
    <radialGradient id="imperial-core" cx="0" cy="0" r="1" gradientUnits="userSpaceOnUse" gradientTransform="translate(64 64) rotate(90) scale(48)">
      <stop stop-color="#73E2FF" stop-opacity="0.95"/>
      <stop offset="0.42" stop-color="#2E97FF" stop-opacity="0.44"/>
      <stop offset="1" stop-color="#081426" stop-opacity="0"/>
    </radialGradient>
    <linearGradient id="imperial-gold" x1="20" y1="18" x2="108" y2="110" gradientUnits="userSpaceOnUse">
      <stop stop-color="#FFE2A3"/>
      <stop offset="1" stop-color="#C68838"/>
    </linearGradient>
    <filter id="imperial-glow" x="0" y="0" width="128" height="128" filterUnits="userSpaceOnUse">
      <feGaussianBlur stdDeviation="5"/>
    </filter>
  </defs>
  <rect width="128" height="128" rx="28" fill="url(#imperial-core)"/>
  <g opacity="0.4">
    <path d="M23 40C33 29 46 22 64 22C82 22 95 29 105 40" stroke="url(#imperial-gold)" stroke-width="1.8"/>
    <path d="M23 88C33 99 46 106 64 106C82 106 95 99 105 88" stroke="url(#imperial-gold)" stroke-width="1.8"/>
  </g>
  <g opacity="0.28" filter="url(#imperial-glow)">
    <circle cx="64" cy="64" r="34" stroke="#73E2FF" stroke-width="2"/>
  </g>
  <circle cx="64" cy="64" r="30" stroke="url(#imperial-gold)" stroke-width="1.5" stroke-opacity="0.8"/>
  <path d="M64 24V44M64 84V104M24 64H44M84 64H104M36 36L50 50M78 78L92 92M92 36L78 50M36 92L50 78" stroke="#EED5A0" stroke-width="1.4" stroke-linecap="round" stroke-opacity="0.72"/>
  <path d="M64 40L70 58L88 64L70 70L64 88L58 70L40 64L58 58L64 40Z" fill="#7AE8FF" fill-opacity="0.92"/>
  <path d="M36 74L52 64L64 66L76 54L95 56" stroke="#73E2FF" stroke-width="2" stroke-linecap="round"/>
  <circle cx="36" cy="74" r="3.5" fill="#FFE2A3"/>
  <circle cx="52" cy="64" r="2.5" fill="#73E2FF"/>
  <circle cx="64" cy="66" r="2.5" fill="#FFE2A3"/>
  <circle cx="76" cy="54" r="2.5" fill="#73E2FF"/>
  <circle cx="95" cy="56" r="3.5" fill="#FFE2A3"/>
  <path d="M22 56C26 50 30 46 35 44M22 72C26 78 30 82 35 84M106 56C102 50 98 46 93 44M106 72C102 78 98 82 93 84" stroke="url(#imperial-gold)" stroke-width="1.6" stroke-linecap="round" stroke-opacity="0.8"/>
</svg>
