<svg width="128" height="128" viewBox="0 0 128 128" fill="none" xmlns="http://www.w3.org/2000/svg">
  <defs>
    <radialGradient id="mythic-bg" cx="0" cy="0" r="1" gradientUnits="userSpaceOnUse" gradientTransform="translate(64 52) rotate(90) scale(66)">
      <stop stop-color="#3F2367"/>
      <stop offset="0.65" stop-color="#1C1338"/>
      <stop offset="1" stop-color="#110B21"/>
    </radialGradient>
    <linearGradient id="mythic-gold" x1="24" y1="22" x2="98" y2="108" gradientUnits="userSpaceOnUse">
      <stop stop-color="#FFE2A8"/>
      <stop offset="1" stop-color="#F2B666"/>
    </linearGradient>
    <linearGradient id="mythic-violet" x1="28" y1="26" x2="102" y2="100" gradientUnits="userSpaceOnUse">
      <stop stop-color="#D7A3FF"/>
      <stop offset="1" stop-color="#8753FF"/>
    </linearGradient>
  </defs>
  <rect width="128" height="128" rx="28" fill="url(#mythic-bg)"/>
  <circle cx="64" cy="64" r="34" stroke="url(#mythic-gold)" stroke-width="1.5" stroke-opacity="0.74"/>
  <circle cx="64" cy="64" r="23" stroke="url(#mythic-violet)" stroke-width="1.5" stroke-opacity="0.66"/>
  <path d="M44 88C32 82 24 70 24 56C24 35 43 20 64 20C77 20 89 26 97 36" stroke="url(#mythic-gold)" stroke-width="1.6" stroke-linecap="round"/>
  <path d="M84 40C96 46 104 58 104 72C104 93 85 108 64 108C51 108 39 102 31 92" stroke="url(#mythic-violet)" stroke-width="1.6" stroke-linecap="round"/>
  <path d="M64 38L69 53L84 58L69 63L64 78L59 63L44 58L59 53L64 38Z" fill="#FFE2A8" fill-opacity="0.92"/>
  <path d="M40 76C48 62 64 52 82 50" stroke="#D7A3FF" stroke-width="2" stroke-linecap="round" stroke-opacity="0.82"/>
  <circle cx="40" cy="76" r="4" fill="#FFE2A8"/>
  <circle cx="58" cy="58" r="3" fill="#D7A3FF"/>
  <circle cx="82" cy="50" r="4" fill="#FFE2A8"/>
  <path d="M32 34L36 38M96 32L92 36M30 96L36 90M96 96L90 90" stroke="url(#mythic-gold)" stroke-width="1.4" stroke-linecap="round" stroke-opacity="0.76"/>
  <circle cx="28" cy="54" r="1.6" fill="#FFE2A8"/>
  <circle cx="102" cy="44" r="1.6" fill="#D7A3FF"/>
  <circle cx="92" cy="86" r="1.6" fill="#FFE2A8"/>
</svg>
